<svg xmlns="http://www.w3.org/2000/svg" viewBox="0 0 826.92 595.28"><defs><style>.cls-1{fill:#fff;fill-rule:evenodd;}</style></defs><g id="Layer_2" data-name="Layer 2"><g id="Capa_1" data-name="Capa 1"><path class="cls-1" d="M318.36,0c-2,3.19,1.2,8.94,5.24,6.75,2.63-1.42,2.3-4.72.74-6.75Z"/><path class="cls-1" d="M372,36.11c4.86-3.33-.47-7.67-2.47-7C366.57,30,365.76,36.12,372,36.11Z"/><path class="cls-1" d="M802.29,369.22c.43-.72.17-3.43.12-4.43-.12-2.23.4-3.81-2.28-4C796.89,363.12,798.39,370.91,802.29,369.22Z"/><path class="cls-1" d="M406.9,142.25c-1.36,0-3.72-.16-3.56,3.45a2.62,2.62,0,0,0,2.83,2.75C410.06,148.51,409.83,144.5,406.9,142.25Z"/><path class="cls-1" d="M2.58,357a18,18,0,0,1,3.27-2.21c1.64-.76,3-.68,2.53-2.75-1.76-1.35-4.49.28-6.46,1.05C-.47,354.07-1,357.11,2.58,357Z"/><path class="cls-1" d="M591.74,574.41c2.41.11,3.12-1.38,3-3.66-.15-2-.6-3.17-2.65-3.77C589.55,568.39,590,572.54,591.74,574.41Z"/><path class="cls-1" d="M759.7,504c2.59,2,3.44.19,3.16-2.09-.14-1.13-.52-2-.63-3-.19-1.64.45-2.18-.7-3.36-2,.71-1.06,1.55-1.51,3.81A10.42,10.42,0,0,0,759.7,504Z"/><path class="cls-1" d="M84.05,25.65c0,3.89,2.66,4.18,5.16,1.86V25.28c-1.54-1.26-2.21-1-4.15-.81Z"/><path class="cls-1" d="M540.05,426.6c.46-1.23,1.23-2.41.22-3.62a4.56,4.56,0,0,0-4.11-1.35,4,4,0,0,0,.68,3.65C538,427.3,538.07,426.89,540.05,426.6Z"/><path class="cls-1" d="M398.11,103.37c3.1,3.31,5.46.35,4.79-1.55C402.17,99.73,398.27,98.52,398.11,103.37Z"/><path class="cls-1" d="M121.37,243.09l1.92,1.5c2.49-1,3-2.66,1.84-4.84C122.14,238.35,121,240.16,121.37,243.09Z"/><path class="cls-1" d="M342.49,582l-.07-2.38c-1.34-1.1-4-1.37-5.73-1-.64,2.14,0,1.79,1.7,2.83S340.51,582.71,342.49,582Z"/><path class="cls-1" d="M153.77,60.06c1.9,1.48,2.87,1.09,4.62-.16l.06-2.21C155.93,56,152.92,56.46,153.77,60.06Z"/><path class="cls-1" d="M110.88,169.57l2.17.11c1-1.35,1.3-4.09.36-5.49C110.6,164,109.28,167.48,110.88,169.57Z"/><path class="cls-1" d="M688.16,128.41c1.42.38.79.34,2.25,0a9,9,0,0,0,.16-4.92l-1.22-.83c-1.45.85-1.45.37-1.63,2.45C687.56,126.9,687.31,126.56,688.16,128.41Z"/><path class="cls-1" d="M328.93,287l-2.31-.19c-1.41,1.53-2.13,3.79.6,4.44C329.27,291.75,331,289.24,328.93,287Z"/><path class="cls-1" d="M126.26,542.76c-6.33-3.72-5.29,6.79.16,2.47Z"/><path class="cls-1" d="M694.71,41.7l-.14,1.63,1.32,1.29,2.27,0,1.35-1.28-.08-1.62C697.86,40.29,696.18,40.26,694.71,41.7Z"/><path class="cls-1" d="M103.67,352.45c-1,4.34,3,5.23,4.22,1.32-1-1.76-.37-1.26-2.21-2.24Z"/><path class="cls-1" d="M434.45,483c0,2.65,2.9,3.21,5,2.4.37-1.69,0-2.1-1.58-2.73S435.52,482,434.45,483Z"/><path class="cls-1" d="M682.31,343.86a2.91,2.91,0,0,0,0-5.45A3.12,3.12,0,0,0,682.31,343.86Z"/><path class="cls-1" d="M73,196.21a7.1,7.1,0,0,0-.11-4C67.58,192.09,69.56,198.79,73,196.21Z"/><path class="cls-1" d="M660.58,513.52c1-1.56,1-4.3-.35-5.63-1.38.27-1.83,1.29-1.87,2.81C658.31,512.43,658.66,513.85,660.58,513.52Z"/><path class="cls-1" d="M769.72,153.68c2.79,1,4.69-1.16,3.23-3.54C770.56,150,768.08,150.87,769.72,153.68Z"/><path class="cls-1" d="M216,344.07c-.27,3,1.38,4.35,3.81,2l0-1.53c-1.18-1.28-.9-1.4-2.65-1.55Z"/><path class="cls-1" d="M220.89,198.3a22.69,22.69,0,0,0,1,3.57c1.54.57,1.47.75,2.83-.47a4.13,4.13,0,0,0-2.61-4Z"/><path class="cls-1" d="M693.34,567.74c-1.3.4-1.76.65-1.82,2.25a2.32,2.32,0,0,0,1.45,2.58C695.46,571.7,695.52,569.25,693.34,567.74Z"/><path class="cls-1" d="M508.66,592.63c-1,1.13-1.09,1.56-.69,2.65h3.32C512,593.82,511,592.2,508.66,592.63Z"/><path class="cls-1" d="M644,413.59c2.53-.58,2.36-3.07.83-4.59-1.31.08-1.95.37-2.09,2A2.66,2.66,0,0,0,644,413.59Z"/><path class="cls-1" d="M772.92,414.55c1.75-1,2.22-2.15.89-3.81-1.25-.22-2.55-.32-2.79,1.29C770.74,413.83,771.63,414.09,772.92,414.55Z"/><path class="cls-1" d="M520.24,229.7c1,1.63,2.6,1.84,4.31.93C525.53,227.43,521.67,227.09,520.24,229.7Z"/><path class="cls-1" d="M535.77,540.16c1.21-1.27,1.36-2.14.08-3.46l-1.59-.13-1.36,1.82,1.08,1.79Z"/><path class="cls-1" d="M558.57,50c1.89.34,2.89-1.39,3-3l-1.11-1.45C559,46.13,557.63,48.46,558.57,50Z"/><path class="cls-1" d="M491.93,107.4A7.41,7.41,0,0,0,497,107c-.13-1.56-.84-1.81-2.48-1.73S491.92,105.66,491.93,107.4Z"/><path class="cls-1" d="M199.07,509.35c2.64.63,3.35-2.59,1-4C198.29,505.79,197.6,507.6,199.07,509.35Z"/><path class="cls-1" d="M119.2,65.29c.2-1.52,0-3.6-1.16-4.46C115.77,61.09,116,66.51,119.2,65.29Z"/><path class="cls-1" d="M300.29,50.51c1.67.76,2,.78,3.45-.57l0-1.69-1.38-.75C300.58,47.94,300,48.48,300.29,50.51Z"/><path class="cls-1" d="M85.78,290.5c1.77,1.56,5.39.65,4.1-2.6-1.43.21-.84.44-2.27,1S86.09,288.92,85.78,290.5Z"/><path class="cls-1" d="M311.79,342.67l-.18,2.14C315.84,348.44,315.79,339.35,311.79,342.67Z"/><path class="cls-1" d="M752.19,325.21c1.46,1.25,1.79,1,3.32.18l.06-2C753.34,322.21,751.74,322.67,752.19,325.21Z"/><path class="cls-1" d="M455.19,243.68c-.45,2.27,1.27,3.4,3.46,2.78l.23-1.66A3.52,3.52,0,0,0,455.19,243.68Z"/><path class="cls-1" d="M627.34,284.06a3,3,0,0,0,0-3.87c-1.43-.23-2,.08-2,1.81S625.78,284.34,627.34,284.06Z"/><path class="cls-1" d="M266,16.11l1.13,1.53c1.58-.05,1.22.13,2.38-.79C269.53,14.16,266.54,12.84,266,16.11Z"/><path class="cls-1" d="M323.38,161.17l.5.93,2,.44c.92-.71,1-.73,1.4-1.73l-.61-1.38C325.07,159.27,324,159.64,323.38,161.17Z"/><path class="cls-1" d="M274.14,521.92c2.47,1.06,3.51-.33,2.35-2.69C274.13,518.66,272.88,519.74,274.14,521.92Z"/><path class="cls-1" d="M181.46,420c.52-2.34-1.6-3.09-3.43-2.69A2.36,2.36,0,0,0,181.46,420Z"/><path class="cls-1" d="M259.23,174.06l0,2.33c3.78,1.26,4.08-1.79,1.46-3.16Z"/><path class="cls-1" d="M134.81,334.25c1.11,1,1.2,1.19,2.62.56.75-1.21.61-1.22.28-2.71C135.55,331.69,134.44,331.84,134.81,334.25Z"/><path class="cls-1" d="M190.69,167.75l.6,1.37c4.06,1.07,4.56-2.91.63-2.69Z"/><path class="cls-1" d="M117.24,118l2.26.43c1-1.26,1.18-1.66.31-3C117.64,114.6,116.7,115.87,117.24,118Z"/><path class="cls-1" d="M325.41,231.46c-.53,1.44-.52.78-.12,2.16,2.26,1.73,3.74,0,2.39-2.38C326.47,231,326.67,230.86,325.41,231.46Z"/><path class="cls-1" d="M45.76,112.57c.15,3.32,3.26,2.78,3.28-.07l-1.72-1.24A13.89,13.89,0,0,0,45.76,112.57Z"/><path class="cls-1" d="M796.82,548.26c-1.46.88-1.65,2.13-.65,3.58C799.4,552.28,799,548.86,796.82,548.26Z"/><path class="cls-1" d="M725.61,92c1,1.29,2.51.8,3.83-.07l0-1.73C727.58,89.77,726.18,90.24,725.61,92Z"/><path class="cls-1" d="M587.52,351.44c2.59,1.68,3.48-1,1.69-2.88l-1.45.13C587,350,587,350.06,587.52,351.44Z"/><path class="cls-1" d="M598.81,64.62c2.21,1.08,3.24-1.31,2.72-3.16C599.46,61,598.47,62.84,598.81,64.62Z"/><path class="cls-1" d="M711.62,406c.51-1.45.62-2.82-.6-3.8C708.9,402.64,708.24,406.32,711.62,406Z"/><path class="cls-1" d="M666.66,305.34c-.35,1.88-.44,2.74,1.35,3.33a2.51,2.51,0,0,0-.09-4.16Z"/><path class="cls-1" d="M11.53,519.53l.92,1.5a2.79,2.79,0,0,0,2.14-3.54C12.8,517.25,12.21,517.87,11.53,519.53Z"/><path class="cls-1" d="M501.39,339.33l1.22,1.46c1.48-.08,1.64.08,2.51-1.06l-.53-1.5C502.87,337.9,502.1,338.07,501.39,339.33Z"/><path class="cls-1" d="M350.75,502.39c1.09.27,1.4-.14,2.6-.7l.33-1.32-1.26-1C351.28,500.05,349.17,500.51,350.75,502.39Z"/><path class="cls-1" d="M422,552.65c1.07,2.14,3.29.33,4.64-.72A3.06,3.06,0,0,0,422,552.65Z"/><path class="cls-1" d="M690.49,18.18c1.44.6,1.3.41,2.3-.52v-2l-1.91-.46C689.85,16.41,689.75,16.79,690.49,18.18Z"/><path class="cls-1" d="M13.6,65.05c1.4.85,2.84,1.16,3.84-.36C16.79,62.37,14,62.83,13.6,65.05Z"/><path class="cls-1" d="M711.87,1.65C713.39,1.91,714,1,714,0h-2.62A3.27,3.27,0,0,0,711.87,1.65Z"/><path class="cls-1" d="M192.85,295.76c2.09,2,3.64.15,2.19-2.17C193.28,293.23,192.66,294,192.85,295.76Z"/><path class="cls-1" d="M30.37,568.65c.17-.71.57,0,.41-1.84l-1.3-.81c-1.62.56-1.65.24-1.89,1.82A2,2,0,0,0,30.37,568.65Z"/><path class="cls-1" d="M122.67,422.67c1.67,1.15,3.55.83,3.26-1.45C124.07,420.33,122.57,420.4,122.67,422.67Z"/><path class="cls-1" d="M646.06,78.87,646,80.36l1,.86,1.8-.7,0-1.92C647.49,77.7,647.07,77.89,646.06,78.87Z"/><path class="cls-1" d="M580.49,124.51A2.39,2.39,0,0,0,580,121C578,122,577.86,125.34,580.49,124.51Z"/><path class="cls-1" d="M478.88,184.17l.17,1.92c2.23.57,3-.23,2.44-2.32C480.28,183.11,479.76,183.19,478.88,184.17Z"/><path class="cls-1" d="M295.68,459l.75.8c1.63-.16,2.77-2,2.14-3.21C297.18,455.89,296,457.76,295.68,459Z"/><path class="cls-1" d="M5.79,214.12c1.28-1.71.31-3.25-1.77-3.27C3.37,212.52,4,214.22,5.79,214.12Z"/><path class="cls-1" d="M166.56,13.47c1,.89.73.77,2,.63l.92-1.28-1.1-1.59C166.6,11.56,166.31,11.69,166.56,13.47Z"/><path class="cls-1" d="M12.53,388.08c1.1,1.5,1.16,1.5,2.83.95.23-1.61.36-1.34-.61-2.49C13.4,386.54,13,386.85,12.53,388.08Z"/><path class="cls-1" d="M405.27,185.75l-.56-1.66C400.25,183.66,403.36,189.33,405.27,185.75Z"/><path class="cls-1" d="M739.72,254.67c.75-1.35.79-1.29.27-2.74C737.14,251,736.76,255.18,739.72,254.67Z"/><path class="cls-1" d="M26.06,460.39c1.07,1,.73,1,2.2.55a2.23,2.23,0,0,0-1.37-3C25.72,458.58,25.82,459,26.06,460.39Z"/><path class="cls-1" d="M758.28,41.05l.92,1.23C763.81,42.51,760.53,37.47,758.28,41.05Z"/><path class="cls-1" d="M173.94,138.07l0,1.8c1.3.66.87.54,2.25.15l.23-2C175.29,137.28,174.94,137.17,173.94,138.07Z"/><path class="cls-1" d="M661.26,184c1.49,1.15,2.48.89,3.31-.72-1.29-1.15-1.4-1.16-3.08-.57Z"/><path class="cls-1" d="M380.58,451.19l.85,1.26,2-.05c.42-1.11.51-2.17-.93-2.3C381.59,450,381.27,450.78,380.58,451.19Z"/><path class="cls-1" d="M90.89,445.86c.19,1.69,1.27,2.44,2.69,1.48A1.55,1.55,0,0,0,90.89,445.86Z"/><path class="cls-1" d="M555.88,185.65c-.93,1-.77,1-.47,2.33,1.43.76,1.48.42,2.3-.84C557.08,185.86,557.48,185.33,555.88,185.65Z"/><path class="cls-1" d="M626.65,108.48a2,2,0,0,0-1-2.83C623.77,106.86,623.9,108.78,626.65,108.48Z"/><path class="cls-1" d="M813.77,472.35v-1.06l-1.28-1-1.38.84.17,1.47C812.68,473.34,812.61,473,813.77,472.35Z"/><path class="cls-1" d="M411.2,371.62a2.52,2.52,0,0,0,2.29-.5c-.12-1.62-.41-2-2.07-1.75C410.75,370.36,410.65,370.31,411.2,371.62Z"/><path class="cls-1" d="M617.25,14.08c1.56.21,1.27.15,2-1.32-.64-1.3-.09-.72-1.34-1.48C616.8,12.23,616.26,12.48,617.25,14.08Z"/><path class="cls-1" d="M813.2,564.89c1.11-1,1-1.38.64-2.91C811.44,561.18,811.37,564.15,813.2,564.89Z"/><path class="cls-1" d="M224.41,440c1.24.8,1.57.89,3,.36-.13-1.15-.14-1.63-1.41-1.83S224.65,438.85,224.41,440Z"/><path class="cls-1" d="M180.7,243.89c.84-1.61-.26-2.83-1.91-2.6C178.67,243,178.72,244.21,180.7,243.89Z"/><path class="cls-1" d="M728.16,155.48c2,.3,2.44-1,1.7-2.53C728.27,152.52,727.69,154,728.16,155.48Z"/><path class="cls-1" d="M518.67,289.89c2.27.41,2-2,.56-3C518.25,288,517.79,288.13,518.67,289.89Z"/><path class="cls-1" d="M314.56,406.42c1,1.87,2.16,1.56,2.64-.39C316.13,404.69,315.28,404.85,314.56,406.42Z"/><path class="cls-1" d="M503.56,33.06c1.27.4,1.08.41,2.27-.11l-.06-1.63C504.05,30.57,503.34,31.49,503.56,33.06Z"/><path class="cls-1" d="M457,437l.06,1.08,3,.24.06-1.31A3.52,3.52,0,0,0,457,437Z"/><path class="cls-1" d="M602.19,409.42l1.24,1.3,1.5-1.19c-.44-1.27-.33-.87-1.41-1.55C602.82,408.43,602.44,408.5,602.19,409.42Z"/><path class="cls-1" d="M720.36,471.3l.08,1.58,1.62.41c1.05-1.5.73-2.21-.88-2.52Z"/><path class="cls-1" d="M357.63,364.84c1.08,1.32,1.93,1.4,3,.07C359.94,363.46,358.1,363.22,357.63,364.84Z"/><path class="cls-1" d="M235,39.58c1.31.82,2.07.66,3.08-.45C237.09,37.69,235,37.72,235,39.58Z"/><polygon class="cls-1" points="206.3 557.54 208.4 557.36 208.29 555.34 206.4 555.24 206.3 557.54"/><path class="cls-1" d="M472.4,519.92c.59.91.6,1,1.71.9C475.85,518.72,472.93,517,472.4,519.92Z"/><path class="cls-1" d="M412.85,255.83c.47,1.29.54,1.24,1.92.89.62-1.39.59-1-.12-2.06C413.48,254.66,413.26,254.41,412.85,255.83Z"/><path class="cls-1" d="M775.2,80.55l.2,1.78c1.63.16,1.74,0,2-1.45C776.64,79.79,776.08,79.65,775.2,80.55Z"/><path class="cls-1" d="M683.61,165.56c-.11.64-.38,1.71.89,1.72s1.3-.79,1.11-1.95C684,164.9,684.76,164.89,683.61,165.56Z"/><path class="cls-1" d="M795.37,298.27c-.36,2,.93,2.55,1.78,1.35S797,297.38,795.37,298.27Z"/><path class="cls-1" d="M587.32,181.69c.31-1.38.41-1.63-.37-2.84-.81.25-.23-.37-.78.34S585.37,181.39,587.32,181.69Z"/><path class="cls-1" d="M65.29,390.9l1.94,0-.09-2.06C65.46,388.75,65,389.37,65.29,390.9Z"/><path class="cls-1" d="M385.42,313.68c.72.95.75,1.18,1.92.68l.36-1.63C386.16,312.24,386,312.4,385.42,313.68Z"/><path class="cls-1" d="M537.82,383.1l-.39,1.24c1.3.81,1,.69,2.15.08l.11-1.2C538.59,382.71,539.09,382.66,537.82,383.1Z"/><path class="cls-1" d="M222.49,103c1.07,2,2.56,1.54,2-.72C223.27,101.83,223.33,102.11,222.49,103Z"/><path class="cls-1" d="M582.32,473.77c1.17.2,2.06.18,2.19-1.17C583.14,471.15,582.24,472,582.32,473.77Z"/><path class="cls-1" d="M462.08,353.38c.55-1.37.77-1.57-.25-2.65C460.43,351.07,460.23,353,462.08,353.38Z"/><path class="cls-1" d="M146.11,189c.53-1.09.52-1.16-.26-2.06-.47.12-1.26.09-1.32,1.17C144.45,189.44,145.54,189.12,146.11,189Z"/><path class="cls-1" d="M603.59,215.29a1.86,1.86,0,0,0,2.46,0C605.76,213.19,603.74,214,603.59,215.29Z"/><path class="cls-1" d="M282.14,234.77c1.69.2,2.31-.54,1.29-2C282.17,232.85,281.85,233.4,282.14,234.77Z"/><path class="cls-1" d="M790.59,236c.86.64,1.88,1.08,1.89-.39,0-1.69.1-.11-.27-.95C790.87,234.37,790.75,234.68,790.59,236Z"/><path class="cls-1" d="M444.86,587.91c1.5-.38,1.32-.53,1.22-1.86a1.88,1.88,0,0,0-1.13,0l-.73.31C444.24,587.64,443.92,587,444.86,587.91Z"/><path class="cls-1" d="M352.05,72.33c1.55-.28,1.58-.84,1.56-2.16C352.18,70.18,351.28,70.79,352.05,72.33Z"/><path class="cls-1" d="M7.7,126.39,7.77,128l1.44.19c.57-1.13.5-.58.17-1.75Z"/><polygon class="cls-1" points="586.7 10.63 586.71 12.29 588.29 12.5 588.47 10.78 586.7 10.63"/><path class="cls-1" d="M637.71,340.16l-.2,1.28,1.61.2.36-1.66C637.88,339.57,638.58,339.62,637.71,340.16Z"/><path class="cls-1" d="M476.28,69.27c1.05,1.32.07.54,1.39.85.6-1.08.84-.23.11-1.87C476.8,68.13,476.45,68.33,476.28,69.27Z"/><path class="cls-1" d="M264.67,311.83c1.21.8,1.19.73,2.35,0-.26-.59-.14-1-1.21-1C265.07,310.79,264.91,311.17,264.67,311.83Z"/><path class="cls-1" d="M379.84,571.35c0-1.18,0-.94-.91-1.73-.85.53-1.15.15-.8,1.5C379,571.72,378.33,571.74,379.84,571.35Z"/><path class="cls-1" d="M510.25,472.87c-1.67-.37-2.15.66-1.4,1.4S510.56,474.47,510.25,472.87Z"/><path class="cls-1" d="M799.24,109.8c.78-.28,1.07-.41,1.07-1.46-1.34-.58-.5-.57-1.8,0C798.4,109.8,798.14,109.14,799.24,109.8Z"/><path class="cls-1" d="M497.07,294.08c-.65,1.5,0,1.67,1.39,1.4v-1.54C496.71,293.6,497.8,293.75,497.07,294.08Z"/><path class="cls-1" d="M35.22,13.62c1.19.43.62.48,1.66-.13.23-1,0-.94-.85-1.45C35.19,12.6,35,12.35,35.22,13.62Z"/><path class="cls-1" d="M544.62,313.44c1.54.27,1.07.46,2-.32-.06-1.12-.06-.91-1.22-1.36Z"/><path class="cls-1" d="M221.8,380.66l1.72.18-.38-1.84C221.9,379.08,221.66,379.45,221.8,380.66Z"/><path class="cls-1" d="M545,91.66c.57-1,.66-.81,0-1.94C543.31,90.07,543.13,91.15,545,91.66Z"/><path class="cls-1" d="M303.44,558.21c1.16-1,1.15-1.92-.39-2.27C302.59,557.1,302.55,557.31,303.44,558.21Z"/><path class="cls-1" d="M789.43,578.15c.63,1.23.28,1.18,1.75.63C791.26,576.84,789.9,577.08,789.43,578.15Z"/><path class="cls-1" d="M408.42,409l1.07.15c.65-1.12.78-1.05-.39-1.8C408,408,408.21,407.48,408.42,409Z"/><path class="cls-1" d="M164.79,473.31c1.44.47,1.37.41,1.75-.92C165.34,471.75,164.6,471.71,164.79,473.31Z"/><path class="cls-1" d="M102.69,527.73c-1.19-.7-.83.13-.85.13-.42,1.63.18,1.5,1.52,1C103,527.68,103.71,528.33,102.69,527.73Z"/><path class="cls-1" d="M365,420.7c1.37-.17,2-.73,1-1.95C364.94,419.29,365,419.6,365,420.7Z"/><path class="cls-1" d="M259.35,264.16c1.54.25.91.49,1.65-.54-.73-1.24-.09-.66-1.44-.83Z"/><path class="cls-1" d="M438.65,12.87c1.67-.3,1.63-1.18,0-1.53C438.15,12.44,438.07,11.8,438.65,12.87Z"/><path class="cls-1" d="M744.6,583.63c.95-.84.75-.17.62-1.5C743.7,582,743.42,582.54,744.6,583.63Z"/><path class="cls-1" d="M32,291.14c.63-.85.92-.9-.28-1.65C30.77,290.61,30.85,290.61,32,291.14Z"/><path class="cls-1" d="M769.21,384.77c1.19-.7,1.14-.87,0-1.55C768.33,383.9,768.2,384.07,769.21,384.77Z"/><path class="cls-1" d="M447.51,291.74c1.35,0,1.29.19,1.18-1.23C446.79,290.65,447.62,289.94,447.51,291.74Z"/><path class="cls-1" d="M215,512.48c.58,1.42.85,1.41,1.59,0C215.64,512,216.42,511.82,215,512.48Z"/><path class="cls-1" d="M710,362c.52-1,.47-.63,0-1.64C708.67,361.08,708.57,361.36,710,362Z"/><path class="cls-1" d="M46,513.65c.63,1.14.48,1.06,1.49.33C46.94,512.7,47.06,512.86,46,513.65Z"/><path class="cls-1" d="M370.47,298.54c1.6-.05,1.61.2.78-1.27C370.39,297.71,370.5,296.54,370.47,298.54Z"/><path class="cls-1" d="M710.57,229.68c1,.55.56.6,1.69,0C711.7,228.84,711.32,228.35,710.57,229.68Z"/><path class="cls-1" d="M593.71,247.73c.49,1.2-.07.74,1.26.79C594.92,247.25,595,246.85,593.71,247.73Z"/><path class="cls-1" d="M800.09,39.09c1.42-.47.44.24,1-1C799.89,37.62,799.45,37.73,800.09,39.09Z"/><path class="cls-1" d="M665.41,9.77c1.05-.29,1.41-.32.65-1.33C665,8.87,665.18,8.37,665.41,9.77Z"/><path class="cls-1" d="M486.7,386.35c1.44-.23,1.33.59,1-1.05C486.59,385.38,486.84,384.76,486.7,386.35Z"/><path class="cls-1" d="M216.72,152.52c.27.94,0,.76,1.1.74.09-1.16.28-.57-.57-1.27Z"/><path class="cls-1" d="M584,352.14c.49-.9.48-.86-.24-1.53C583.28,351.24,582.6,351.41,584,352.14Z"/><path class="cls-1" d="M395.86,31.56c.71.36.26.68,1.3-.06C396.36,29.68,395.93,31.5,395.86,31.56Z"/><path class="cls-1" d="M497.05,68.41c1.05.57.3.48,1.36,0C497.35,66.61,497.76,67.67,497.05,68.41Z"/><path class="cls-1" d="M306.63,193.5c-.18,1.23-.23.83,1,.84C307.23,192.38,307.28,193.36,306.63,193.5Z"/><path class="cls-1" d="M491.9,185c.49-.71.62-.23,0-1.24-.06,0-.56-.21-.52.68C491.44,185.08,491.44,184.66,491.9,185Z"/><path class="cls-1" d="M21.69,3.91c1,.81-.17,1,1.39,0C21.85,3.18,22.84,3.14,21.69,3.91Z"/><path class="cls-1" d="M217.75,14.11c.58-.84.66-.14,0-.92C217.22,14,217,13.48,217.75,14.11Z"/><path class="cls-1" d="M223.29,500.87c-2.94-1.66-.53-7.08,2.61-5.38S226.12,502.47,223.29,500.87Z"/><path class="cls-1" d="M545.68,46.87c.11,4.83-3.15,2.84-1.5-2.44.47-1.48,2.15-2.29,3-.73C548.65,46.23,545.69,46.87,545.68,46.87Z"/><path class="cls-1" d="M258.38,475.77c3.26,2.23-.32,5.15-1.66,4.73C254.76,479.89,254.21,475.76,258.38,475.77Z"/><path class="cls-1" d="M274.92,58.15c1.71-1.48,2-.31,3.55.5s2.83,1,1.95,2.78C279.91,61.59,274.6,61.65,274.92,58.15Z"/><path class="cls-1" d="M547.42,252a9.11,9.11,0,0,1,.08,3c-.08,1.5.26,2.57-1.54,2.71C543.79,256.13,544.8,250.89,547.42,252Z"/><path class="cls-1" d="M281.85,404.47c-.92,0-2.5.11-2.4-2.31a1.76,1.76,0,0,1,1.9-1.85C284,400.27,283.82,403,281.85,404.47Z"/><path class="cls-1" d="M10.28,260.21a12.8,12.8,0,0,0,2.19,1.49c1.11.5,2,.45,1.7,1.84-1.18.91-3-.19-4.34-.7C8.23,262.21,7.85,260.16,10.28,260.21Z"/><path class="cls-1" d="M440.92,101.53c1.62-.07,2.1.93,2,2.46-.1,1.33-.4,2.13-1.78,2.53C439.45,105.58,439.74,102.79,440.92,101.53Z"/><path class="cls-1" d="M518.81,161.5c1.74-1.34,2.31-.13,2.12,1.41-.09.76-.35,1.36-.42,2-.13,1.1.3,1.46-.47,2.25-1.36-.48-.71-1-1-2.56A6.89,6.89,0,0,1,518.81,161.5Z"/><path class="cls-1" d="M65,482.79c0-2.61,1.79-2.81,3.47-1.25V483c-1,.85-1.48.69-2.78.55Z"/><path class="cls-1" d="M371.28,213.49c.31.82.82,1.61.15,2.43a3.1,3.1,0,0,1-2.77.91,2.76,2.76,0,0,1,.46-2.46C369.92,213,370,213.3,371.28,213.49Z"/><path class="cls-1" d="M473.39,548.46c2.65-2.5,4.24,2.07,1.36,3C473.44,551,473.23,549.89,473.39,548.46Z"/><path class="cls-1" d="M275.94,430.59c2.08-2.22,3.67-.24,3.22,1S276.05,433.85,275.94,430.59Z"/><path class="cls-1" d="M90.07,336.75l1.29-1c1.67.68,2,1.78,1.23,3.25C90.58,339.93,89.8,338.71,90.07,336.75Z"/><path class="cls-1" d="M430.48,52.37c.8.24.21.24,1.19.61,2.52.94.93,2.7.58,2.89C430.61,56.74,429.22,54.65,430.48,52.37Z"/><path class="cls-1" d="M238.58,109.11l0,1.59a5.23,5.23,0,0,1-3.85.69c-.43-1.44,0-1.21,1.14-1.9A2.46,2.46,0,0,1,238.58,109.11Z"/><path class="cls-1" d="M111.83,459.68c1.27-1,1.92-.73,3.1.11l0,1.48C113.28,462.39,111.25,462.1,111.83,459.68Z"/><path class="cls-1" d="M83,386.13l1.46-.08a3.78,3.78,0,0,1,.24,3.69C82.83,389.88,81.94,387.53,83,386.13Z"/><path class="cls-1" d="M470.76,413.77c.95-.25.53-.22,1.51,0a6.08,6.08,0,0,1,.11,3.3l-.83.56c-1-.57-1-.25-1.09-1.65C470.35,414.78,470.19,415,470.76,413.77Z"/><path class="cls-1" d="M229.48,307.24l-1.55.12c-1-1-1.43-2.54.4-3C229.71,304.06,230.88,305.75,229.48,307.24Z"/><path class="cls-1" d="M93.35,135.47c-4.25,2.5-3.56-4.56.1-1.66Z"/><path class="cls-1" d="M475.16,472l-.09-1.09.88-.87,1.53,0,.9.86-.05,1.09A2.11,2.11,0,0,1,475.16,472Z"/><path class="cls-1" d="M186.89,85.3c-2.31.72-3.78-1.17-2.23-2.25C185.82,82.25,188.4,83.27,186.89,85.3Z"/><path class="cls-1" d="M514.58,535.48a3.38,3.38,0,0,1,.65,2.2c-.06.67-.69,1.7-1.39,1.68C512.7,539.33,512.27,535.5,514.58,535.48Z"/><path class="cls-1" d="M78.18,263.29c-.66-2.91,2-3.51,2.83-.89-.68,1.19-.24.85-1.48,1.51Z"/><path class="cls-1" d="M326.34,558a2,2,0,0,1,1.29,3.19C326,562,324.33,559.27,326.34,558Z"/><path class="cls-1" d="M296,42.26c1.44-.12,1.82-.19,2.4,1.19-.9,1.72-2.83,1.86-3.4-.06Z"/><path class="cls-1" d="M300.35,175.6c0-1.78,1.95-2.16,3.36-1.61.25,1.13,0,1.41-1.07,1.83S301.07,176.29,300.35,175.6Z"/><path class="cls-1" d="M466.83,269.06a2,2,0,0,1,0,3.66A2.09,2.09,0,0,1,466.83,269.06Z"/><path class="cls-1" d="M57.56,368.23a4.76,4.76,0,0,1-.08,2.69C53.94,371,55.27,366.5,57.56,368.23Z"/><path class="cls-1" d="M452.23,155.11a3.21,3.21,0,0,1-.23,3.78c-.93-.18-1.23-.86-1.26-1.89S451,154.89,452.23,155.11Z"/><path class="cls-1" d="M525.54,396.8c1.87-.65,3.15.78,2.17,2.38C526.1,399.31,524.44,398.69,525.54,396.8Z"/><path class="cls-1" d="M153.64,268.92c-.17-2,.93-2.92,2.57-1.36l0,1c-.8.86-.61.94-1.79,1Z"/><path class="cls-1" d="M156.91,366.83a16.27,16.27,0,0,1,.66-2.4c1-.38,1-.5,1.9.32a2.75,2.75,0,0,1-1.75,2.68Z"/><path class="cls-1" d="M474.24,118.69c-.88-.27-1.19-.44-1.22-1.51a1.56,1.56,0,0,1,1-1.73C475.66,116,475.7,117.67,474.24,118.69Z"/><path class="cls-1" d="M126,548.32l.77-.61a3.63,3.63,0,0,1,2.44,1.13l-.34,1.14A2.14,2.14,0,0,1,126,548.32Z"/><path class="cls-1" d="M350.19,102c-.78-.92-.74-1.15-.23-2.32l1-.4C352.82,100.19,352.31,102.37,350.19,102Z"/><path class="cls-1" d="M383.1,25.3a3.67,3.67,0,0,1-.14,2.51c-1,.24-1,.28-1.8-.29C380.79,26.31,381.53,24.73,383.1,25.3Z"/><path class="cls-1" d="M441.07,222.23c1.7.39,1.59,2.06.56,3.08-.88-.05-1.31-.25-1.41-1.32A1.79,1.79,0,0,1,441.07,222.23Z"/><path class="cls-1" d="M527.69,221.59c1.18.65,1.49,1.43.6,2.55-.85.15-1.71.21-1.88-.86S526.83,221.89,527.69,221.59Z"/><path class="cls-1" d="M358,345.74a2,2,0,0,1,2.9-.63C361.52,347.26,358.93,347.49,358,345.74Z"/><path class="cls-1" d="M265,579.27h-2c-.53-.8-.44-.42-.37-1.45,1.09-.54,2.38-.74,3,.47A1.86,1.86,0,0,1,265,579.27Z"/><path class="cls-1" d="M368.4,137.21c.81.86.92,1.44.06,2.33l-1.07.09-.91-1.22.72-1.21Z"/><path class="cls-1" d="M383.72,466.42c1.27-.23,1.94.93,2,2l-.74,1C384,469,383.08,467.47,383.72,466.42Z"/><path class="cls-1" d="M339,427.88a5,5,0,0,1,3.43.24c-.09,1.05-.57,1.22-1.67,1.17S339,429.05,339,427.88Z"/><path class="cls-1" d="M142.25,157.91c1.78-.42,2.26,1.74.7,2.66C141.73,160.3,141.26,159.09,142.25,157.91Z"/><path class="cls-1" d="M88.61,456.17c.13,1,0,2.42-.78,3C86.31,459,86.44,455.35,88.61,456.17Z"/><path class="cls-1" d="M210.24,466.1c1.12-.51,1.37-.53,2.32.37l0,1.15-.93.5C210.44,467.82,210.07,467.46,210.24,466.1Z"/><path class="cls-1" d="M66.16,304.9c1.19-1,3.62-.44,2.75,1.75-1-.14-.56-.3-1.52-.65S66.37,306,66.16,304.9Z"/><path class="cls-1" d="M218,269.86l-.11-1.44C220.69,266,220.65,272.09,218,269.86Z"/><path class="cls-1" d="M513.76,281.59c1-.84,1.21-.7,2.23-.12l0,1.37C514.54,283.6,513.46,283.29,513.76,281.59Z"/><path class="cls-1" d="M380.32,565.16c.45-1.17.92-1.56,2.17-1l.31,1.42-1.24.79A2.24,2.24,0,0,1,380.32,565.16Z"/><path class="cls-1" d="M314.28,336.35c-.3-1.53.85-2.29,2.32-1.87l.16,1.12A2.36,2.36,0,0,1,314.28,336.35Z"/><path class="cls-1" d="M30.12,561.4c.63,1.42-1.27,2.87-2,2.06S28.88,561,30.12,561.4Z"/><path class="cls-1" d="M429.91,309.22a2,2,0,0,1,0,2.6c-1,.16-1.33-.05-1.36-1.21S428.86,309,429.91,309.22Z"/><path class="cls-1" d="M180.14,424.16l.75-1c1.07,0,.83-.09,1.61.53C182.54,425.47,180.53,426.35,180.14,424.16Z"/><path class="cls-1" d="M115.42,31.85c.22-.67.26-.8.91-1.07s.71-.22,1.52-.12l.41.78A1.62,1.62,0,0,1,115.42,31.85Z"/><path class="cls-1" d="M225.75,391.77l.33-.62,1.35-.3c.62.48.7.49.94,1.16l-.41.93C226.88,393,226.14,392.8,225.75,391.77Z"/><path class="cls-1" d="M398.34,508a1.75,1.75,0,0,1,1.74,2.68C399.08,510.42,397.71,509.15,398.34,508Z"/><path class="cls-1" d="M192.67,149.47c1.67-.71,2.36.22,1.59,1.8C192.67,151.65,191.83,150.93,192.67,149.47Z"/><path class="cls-1" d="M130.42,217.9c.35,1.57-1.07,2.08-2.3,1.81A1.58,1.58,0,0,1,130.42,217.9Z"/><path class="cls-1" d="M182.66,383.11l0-1.56c2.53-.85,2.73,1.2,1,2.12Z"/><path class="cls-1" d="M99.1,275.52c.74-.67.8-.8,1.75-.38.51.81.41.82.19,1.82C99.59,277.24,98.84,277.13,99.1,275.52Z"/><path class="cls-1" d="M136.62,387.35l.41-.92c2.72-.72,3.06,1.95.42,1.8Z"/><path class="cls-1" d="M87.29,420.77l1.52-.29c.7.85.79,1.12.21,2C87.56,423.05,86.93,422.19,87.29,420.77Z"/><path class="cls-1" d="M501.86,516.19c.31-.74.36-.89,1.09-1.16l.95.44c.23,1,.21.68-.1,1.6l-.83.4C502.16,517.12,502.16,517.07,501.86,516.19Z"/><path class="cls-1" d="M177.86,49.51c-2.64.81-2.63-2.71,0-1.77C178.22,48.65,178.38,48.62,177.86,49.51Z"/><path class="cls-1" d="M227.11,344.56c-.36-1-.35-.53-.08-1.45,1.52-1.16,2.52,0,1.61,1.59C227.82,344.87,228,345,227.11,344.56Z"/><path class="cls-1" d="M345.5,40.94s.26-2.14,2.33-.67C347.93,42.23,346.18,42.27,345.5,40.94Z"/><path class="cls-1" d="M116.6,574.82c-.08-1.31.58-2.33,2-2C118.79,574.08,117.81,576,116.6,574.82Z"/><path class="cls-1" d="M39.28,424.41c.1-2.23,2.19-1.87,2.2,0l-1.15.83A8.72,8.72,0,0,1,39.28,424.41Z"/><path class="cls-1" d="M543.74,131.77a1.49,1.49,0,0,1-.43-2.4C545.48,129.07,545.19,131.37,543.74,131.77Z"/><path class="cls-1" d="M495.91,438.22c.69-.87,1.69-.54,2.57,0v1.16C497.24,439.73,496.29,439.41,495.91,438.22Z"/><path class="cls-1" d="M403.16,264c1.75-1.13,2.34.66,1.13,1.93l-1-.08C402.83,264.91,402.78,264.9,403.16,264Z"/><path class="cls-1" d="M410.75,456.62c1.48-.73,2.17.88,1.82,2.12C411.18,459.07,410.52,457.81,410.75,456.62Z"/><path class="cls-1" d="M486.51,227.36a2.07,2.07,0,0,1-.4,2.55C484.69,229.58,484.25,227.11,486.51,227.36Z"/><path class="cls-1" d="M456.32,294.93c-.24-1.26-.3-1.84.9-2.23a1.68,1.68,0,0,1-.06,2.79Z"/><path class="cls-1" d="M322.19,508c-.09,1.23-.3,1.4-1.54,1.55C319.15,508.05,320.82,506.49,322.19,508Z"/><path class="cls-1" d="M16.29,151.07l.62-1a1.89,1.89,0,0,1,1.44,2.38C17.14,152.6,16.74,152.18,16.29,151.07Z"/><path class="cls-1" d="M314.4,65.09c.3-.68,1.38-.68,2.13-.39a2.35,2.35,0,0,1,1.34,1.83A20.7,20.7,0,0,1,314.4,65.09Z"/><path class="cls-1" d="M462.54,518.51c.08,1.44-1.54,2.2-2,1.5S460.77,517.48,462.54,518.51Z"/><path class="cls-1" d="M7.32,77.11V76c1.11-.58,2.34-.47,1.94,1.08C8.94,78.27,8,77.51,7.32,77.11Z"/><path class="cls-1" d="M479.59,32.92c.47,2.58-2.22,2.69-1.78,0A2,2,0,0,1,479.59,32.92Z"/><path class="cls-1" d="M345.31,272.1l.82-1c1,.06,1.1-.05,1.69.71l-.36,1C346.31,273.06,345.79,273,345.31,272.1Z"/><path class="cls-1" d="M244.13,162.58c.74-.18.94.1,1.75.47l.22.89-.85.67C244.49,164.15,243.07,163.84,244.13,162.58Z"/><path class="cls-1" d="M212.47,44.35c.22.76.48.21.26,1.73-.8.65-.77.62-1.6.09C211,45,211,43.92,212.47,44.35Z"/><path class="cls-1" d="M292,128.83c.72-1.44,2.21-.23,3.12.48A2.06,2.06,0,0,1,292,128.83Z"/><path class="cls-1" d="M468.85,343.06c1-.41.87-.28,1.54.35v1.34l-1.28.31C468.42,344.25,468.35,344,468.85,343.06Z"/><path class="cls-1" d="M17.68,456.33c.94-.57,1.91-.78,2.58.24A1.31,1.31,0,0,1,17.68,456.33Z"/><path class="cls-1" d="M486.68,498.91c1.85-.32,1.79,2,.46,2.39A1.6,1.6,0,0,1,486.68,498.91Z"/><path class="cls-1" d="M500.42,10.39c.27-.89.13-.78.95-1.2,1.5.35,1.67,1.44.21,2.14A1.82,1.82,0,0,1,500.42,10.39Z"/><path class="cls-1" d="M138.08,301.37c1.4-1.36,2.44-.1,1.46,1.46C138.36,303.07,138,302.59,138.08,301.37Z"/><path class="cls-1" d="M28.94,118.08c.12.48.39,0,.28,1.24l-.87.54c-1.09-.38-1.11-.17-1.27-1.22A1.35,1.35,0,0,1,28.94,118.08Z"/><path class="cls-1" d="M90.94,216.13c1.12-.77,2.38-.56,2.19,1C91.88,217.7,90.87,217.66,90.94,216.13Z"/><path class="cls-1" d="M442.48,447.05l-.06-1,.65-.58,1.21.47,0,1.29C443.44,447.83,443.16,447.71,442.48,447.05Z"/><path class="cls-1" d="M398.44,416.39a1.6,1.6,0,0,1-.33,2.37C396.74,418.07,396.68,415.83,398.44,416.39Z"/><path class="cls-1" d="M40.08,46.06c-1.23.78-2.21-.08-1.62-1.39.74-.42.79-.42,1.54,0C40.36,45.4,40.3,45.22,40.08,46.06Z"/><path class="cls-1" d="M252.39,82.41c1-.79,2.45-.92,2.18.83-.86.54-.67.46-1.65.3C252.2,82.6,252.59,83.51,252.39,82.41Z"/><path class="cls-1" d="M330.19,376.32l.12-1.29c1.5-.38,2,.16,1.63,1.56C331.13,377,330.79,377,330.19,376.32Z"/><path class="cls-1" d="M18.24,525.13c1.08.37,1.5.75.82,1.79-.65.2-1.36.33-1.68-.5S17.7,525.39,18.24,525.13Z"/><path class="cls-1" d="M207.15,191.7l.5-.54a1.67,1.67,0,0,1,1.44,2.16C208.15,193.81,207.39,192.56,207.15,191.7Z"/><path class="cls-1" d="M518.66,70.77a1.77,1.77,0,0,1-2,2C516.67,71.34,517.21,70.65,518.66,70.77Z"/><path class="cls-1" d="M12.43,356.21c.87,1.14.22,2.18-1.18,2.19C10.81,357.28,11.22,356.14,12.43,356.21Z"/><path class="cls-1" d="M120.42,491c.65-.6.49-.51,1.35-.42l.62.86-.74,1.07C120.45,492.26,120.25,492.17,120.42,491Z"/><path class="cls-1" d="M17,239.36c.74-1,.78-1,1.9-.63.16,1.08.25.89-.41,1.67C17.54,240.39,17.3,240.19,17,239.36Z"/><path class="cls-1" d="M280.75,375.26l-.37,1.12C277.38,376.66,279.47,372.85,280.75,375.26Z"/><path class="cls-1" d="M505.39,329c.5.91.53.86.18,1.84C503.65,331.44,503.4,328.63,505.39,329Z"/><path class="cls-1" d="M26.05,190.79c.72-.68.49-.66,1.48-.37a1.5,1.5,0,0,1-.92,2C25.82,192,25.89,191.72,26.05,190.79Z"/><path class="cls-1" d="M510.9,90.49c.61-.79,1.16-.79,2.12-.41l-.12,1.27C511.67,91.67,511.29,91.54,510.9,90.49Z"/><path class="cls-1" d="M469.22,81c-1.56.17-1.77-.9-1-2C469.58,78.77,469.54,79.89,469.22,81Z"/><path class="cls-1" d="M152,504.14c.42-1.06,1-1.18,2.1-1.17l.11,1.29-1,.49Z"/><path class="cls-1" d="M517.85,472.45l.62-.83C521.57,471.47,519.37,474.86,517.85,472.45Z"/><path class="cls-1" d="M125.37,407.28l0-1.21c.88-.44.58-.36,1.51-.1l.16,1.36C126.28,407.82,126.05,407.89,125.37,407.28Z"/><path class="cls-1" d="M437.5,573.5c-.16-.91-.18-.5.24-1.32l1.33-.09C439.78,573.51,438.66,574.27,437.5,573.5Z"/><path class="cls-1" d="M452.69,376.42c1-.78,1.67-.6,2.22.48-.86.77-.94.77-2.07.38Z"/><path class="cls-1" d="M264.17,197l.57-.85,1.35,0c.28.75.34,1.46-.63,1.54C264.85,197.76,264.63,197.25,264.17,197Z"/><path class="cls-1" d="M187.48,571.71l1.31-.08.08,1.64C187.29,573.49,186.84,573.14,187.48,571.71Z"/><path class="cls-1" d="M69.59,200.55c.13-1.13.86-1.64,1.81-1A1,1,0,0,1,69.59,200.55Z"/><path class="cls-1" d="M381.91,375.33c-.62-.71-.52-.69-.32-1.57,1-.51,1-.28,1.55.56C382.72,375.19,383,375.54,381.91,375.33Z"/><path class="cls-1" d="M429.44,427.16a1.33,1.33,0,0,1-.68,1.9C427.51,428.25,427.59,427,429.44,427.16Z"/><path class="cls-1" d="M555.13,182.76v.71l-.86.64-.93-.57.12-1C554.4,182.09,554.35,182.34,555.13,182.76Z"/><path class="cls-1" d="M284.73,250.42a1.69,1.69,0,0,1,1.54.33c-.08,1.09-.27,1.34-1.39,1.18C284.43,251.26,284.37,251.3,284.73,250.42Z"/><path class="cls-1" d="M423.13,490.57c1.05-.15.85-.11,1.32.88-.43.88-.06.48-.9,1C422.83,491.81,422.47,491.64,423.13,490.57Z"/><path class="cls-1" d="M434.85,190.74c.74.65.68.92.42,2C433.66,193.23,433.62,191.23,434.85,190.74Z"/><path class="cls-1" d="M159.28,204.48a1.63,1.63,0,0,1,2-.24c-.09.77-.1,1.09-1,1.23S159.43,205.26,159.28,204.48Z"/><path class="cls-1" d="M129.91,336.21c.57,1.08-.17,1.9-1.28,1.75C128.55,336.78,128.58,336,129.91,336.21Z"/><path class="cls-1" d="M35.4,527.47c-.31-.8-.35-.36,0-1.24.86-.34,1.16-.32,1.51.6C36.64,527.69,36.21,527.89,35.4,527.47Z"/><path class="cls-1" d="M497.62,395.59c1.35-.2,1.64.65,1.15,1.7C497.7,397.58,497.31,396.57,497.62,395.59Z"/><path class="cls-1" d="M356.92,305.31c1.52-.27,1.34,1.33.37,2.05C356.63,306.61,356.33,306.49,356.92,305.31Z"/><path class="cls-1" d="M173.74,514.43l1.19.05c.25.94.26.55-.06,1.36C173.84,516.45,173.17,515.55,173.74,514.43Z"/><path class="cls-1" d="M219.82,227c.7-1.25,1.46-1,1.78.26C220.88,228.21,220.31,228.1,219.82,227Z"/><path class="cls-1" d="M327.7,474c.85-.27.73-.28,1.52.07l0,1.1C328,475.63,327.55,475,327.7,474Z"/><path class="cls-1" d="M315.48,206.47l0-.72,2-.16,0,.88A2.36,2.36,0,0,1,315.48,206.47Z"/><path class="cls-1" d="M413,225l.84-.87,1,.81c-.3.84-.22.58-.95,1C413.44,225.69,413.18,225.65,413,225Z"/><path class="cls-1" d="M492.39,183.47l.05-1.07,1.09-.27c.7,1,.49,1.48-.59,1.69Z"/><path class="cls-1" d="M248.75,255c.73-.88,1.3-.94,2-.05C250.31,255.89,249.07,256.06,248.75,255Z"/><path class="cls-1" d="M166.41,473.43a1.36,1.36,0,0,1,2.07.31C167.79,474.7,166.39,474.69,166.41,473.43Z"/><polygon class="cls-1" points="147.11 125.54 148.52 125.66 148.45 127.02 147.18 127.09 147.11 125.54"/><path class="cls-1" d="M159.49,88.74c-1,.38-1.53,0-1.46-1.16.92-.29.71-.28,1.66.23Z"/><path class="cls-1" d="M325.84,150.81c.4-.62.41-.66,1.15-.6C328.16,151.61,326.2,152.77,325.84,150.81Z"/><path class="cls-1" d="M208.18,547.76l1.42-.3c.18,1.08.26.73-.08,1.55l-1,0Z"/><path class="cls-1" d="M285.84,328.19c.32-.86.37-.84,1.29-.6.42.93.4.65-.08,1.39C286.27,329,286.12,329.14,285.84,328.19Z"/><path class="cls-1" d="M24,20.94h1.34l.13,1c-.77.58-.54.61-1.41.21Z"/><path class="cls-1" d="M529.22,445.92l.14-1.2c1.09-.1,1.16,0,1.33,1C530.19,446.43,529.81,446.52,529.22,445.92Z"/><path class="cls-1" d="M467.7,388.82c-.08-.43-.25-1.15.6-1.15s.87.52.75,1.3C468,389.26,468.47,389.27,467.7,388.82Z"/><path class="cls-1" d="M164,29.25c-.8.73-.71.59-1.57.07C162.83,27.6,164.17,28,164,29.25Z"/><path class="cls-1" d="M429.74,542.66l1.11-.21.1,1.35-1.25.2C429.48,543.09,429.32,543.42,429.74,542.66Z"/><path class="cls-1" d="M542.77,299.69c-.24-1.38.62-1.72,1.19-.91S543.84,300.28,542.77,299.69Z"/><path class="cls-1" d="M126,51.38c.68-.29.5-.31,1.15.07.13.9.21.77-.63,1.31C125.86,52.43,125.55,52.35,126,51.38Z"/><path class="cls-1" d="M403,378c.2.92.27,1.09-.25,1.9-.55-.16-.15.25-.53-.23S401.72,378.19,403,378Z"/><path class="cls-1" d="M52.39,237.47l1.31,0-.06,1.38C52.51,238.91,52.21,238.49,52.39,237.47Z"/><path class="cls-1" d="M547,91.7c0-.79.54-.71,1-.79.62.77.63.76,0,1.51C547.46,92.31,547.06,92.36,547,91.7Z"/><path class="cls-1" d="M267.42,289.33c.49-.64.5-.79,1.29-.45L269,290C267.92,290.3,267.81,290.19,267.42,289.33Z"/><path class="cls-1" d="M369.78,242.7l-.26-.83c.87-.54.69-.46,1.44-.05l.08.81C370.3,243,370.63,243,369.78,242.7Z"/><path class="cls-1" d="M257.61,517.43c.57-.53.47-.55,1.27-.29l.17,1.14C258,518.54,257.77,518.35,257.61,517.43Z"/><path class="cls-1" d="M105,85.78c1-.18,1.3.22,1.63,1C105.82,87.61,105,86.74,105,85.78Z"/><path class="cls-1" d="M158,430.82c.71-1.35,1.71-1,1.37.48C158.51,431.63,158.55,431.44,158,430.82Z"/><path class="cls-1" d="M88.05,507.91c.92-.18.36-.3,1.08.2.12.83.39.34-.31,1C87.94,509.3,87.52,508.78,88.05,507.91Z"/><path class="cls-1" d="M399.67,181.81c.78-.14,1.38-.13,1.47.78C400.22,183.57,399.62,183,399.67,181.81Z"/><path class="cls-1" d="M318.91,262.66c.37.93.51,1.06-.17,1.79C317.8,264.22,317.66,262.9,318.91,262.66Z"/><path class="cls-1" d="M106.68,373.05c.36.74.35.79-.17,1.39-.32-.08-.85-.06-.89-.78C105.57,372.78,106.3,373,106.68,373.05Z"/><path class="cls-1" d="M414,355.42a1.24,1.24,0,0,1,1.65,0C415.41,356.83,414.06,356.32,414,355.42Z"/><path class="cls-1" d="M198.05,342.34c1.14-.14,1.55.36.87,1.34C198.07,343.62,197.86,343.25,198.05,342.34Z"/><path class="cls-1" d="M539.56,341.54c.58-.44,1.26-.73,1.26.26s.07.07-.18.63C539.75,342.6,539.66,342.4,539.56,341.54Z"/><path class="cls-1" d="M50.82,96.79c-.78-.11-.73-.25-1.09-.76C50.52,94.73,51.64,95.58,50.82,96.79Z"/><path class="cls-1" d="M307.34,105.14c1,.26.89.35.82,1.25a1.23,1.23,0,0,1-.76,0l-.49-.2C306.92,105.32,306.71,105.73,307.34,105.14Z"/><path class="cls-1" d="M245,451.44c1,.19,1.06.56,1.05,1.45C245.09,452.88,244.49,452.48,245,451.44Z"/><path class="cls-1" d="M390.26,65.3a1.27,1.27,0,0,1,.43-.72c1.05.48.78,1.22,0,1.73A1.09,1.09,0,0,1,390.26,65.3Z"/><path class="cls-1" d="M13.72,415.13l0-1.06,1-.12c.38.76.34.38.11,1.18Z"/><polygon class="cls-1" points="352.79 438.42 352.79 437.3 353.86 437.16 353.97 438.32 352.79 438.42"/><path class="cls-1" d="M436.87,271.54l-.13-.85,1.08-.14.24,1.12C437,271.94,437.45,271.91,436.87,271.54Z"/><path class="cls-1" d="M454,59.2c.31.78.33.4-.06,1.19l-1-.12C453.05,59.37,453,59,454,59.2Z"/><path class="cls-1" d="M551.18,569.14,552,569c.37.92.37.36,0,1.24C551.15,570.3,550.77,570,551.18,569.14Z"/><path class="cls-1" d="M328.44,453.49c.71-.88.05-.36.94-.57.4.73.57.16.07,1.26C328.8,454.26,328.56,454.13,328.44,453.49Z"/><path class="cls-1" d="M186.32,290.57c.81-.53.79-.48,1.57,0-.17.4-.09.68-.81.69C186.59,291.27,186.48,291,186.32,290.57Z"/><path class="cls-1" d="M263.67,116.27c0,.79,0,.62-.61,1.16-.57-.36-.77-.11-.54-1C263.13,116,262.65,116,263.67,116.27Z"/><path class="cls-1" d="M351.26,182.41c-1.12.25-1.44-.44-.94-.94S351.47,181.34,351.26,182.41Z"/><path class="cls-1" d="M545.37,426.27c.52.19.71.28.71,1-.9.39-.33.38-1.2,0C544.8,426.27,544.63,426.72,545.37,426.27Z"/><path class="cls-1" d="M342.41,302.5c-.44-1,0-1.13.93-.94v1C342.17,302.82,342.9,302.72,342.41,302.5Z"/><path class="cls-1" d="M32.2,490.87c.8-.28.41-.32,1.12.09.15.69,0,.63-.57,1C32.18,491.55,32.07,491.73,32.2,490.87Z"/><path class="cls-1" d="M374.35,289.49c1-.18.71-.3,1.34.22,0,.75,0,.61-.82.92Z"/><path class="cls-1" d="M249.91,554.31l.72,0c.15.93.25.49-.19,1.2C250.43,555.53,249.06,555.76,249.91,554.31Z"/><path class="cls-1" d="M157.52,244.35l1.15-.13-.25,1.24C157.59,245.4,157.43,245.16,157.52,244.35Z"/><path class="cls-1" d="M362,509.31c.22-1.31,1.07-1.29,1.25,0C362.45,509.73,362.76,509.71,362,509.31Z"/><path class="cls-1" d="M374.62,438.46c.38.69.44.54,0,1.3C373.46,439.53,373.35,438.8,374.62,438.46Z"/><path class="cls-1" d="M82,40.64c-1.25-.14-.88-1.1-.07-1.24C82.54,40,82.53,40,82,40.64Z"/><path class="cls-1" d="M212.36,125.09c.78.68.77,1.29-.27,1.52C211.78,125.83,211.76,125.7,212.36,125.09Z"/><path class="cls-1" d="M477.93,194.39c.41-.83.18-.79,1.17-.42C479.16,195.27,478.24,195.11,477.93,194.39Z"/><path class="cls-1" d="M282.87,225.35l.72-.11c.43.76.52.71-.27,1.21C282.58,226,282.72,226.33,282.87,225.35Z"/><path class="cls-1" d="M119.23,182.11c1-.31.92-.27,1.18.63C119.6,183.16,119.1,183.19,119.23,182.11Z"/><path class="cls-1" d="M77.52,145.56c-.8.47-.56-.08-.57-.09-.28-1.09.12-1,1-.67C77.74,145.6,78.21,145.16,77.52,145.56Z"/><path class="cls-1" d="M253.71,217.45c.92.11,1.32.49.69,1.31C253.66,218.4,253.69,218.19,253.71,217.45Z"/><path class="cls-1" d="M182.74,322.59c1-.16.61-.32,1.11.36-.49.84-.06.45-1,.57Z"/><path class="cls-1" d="M71.78,554.53c1.11.15.47-.15.87.5-.4.71,0,.5-1,.51Z"/><path class="cls-1" d="M193.61,575.1l.87-.25c.15,1,.34.5-.26,1.1C193.33,575.61,193.65,575.72,193.61,575.1Z"/><path class="cls-1" d="M303.83,475.37c1.12.2,1.1.79,0,1C303.5,475.66,303.44,476.09,303.83,475.37Z"/><path class="cls-1" d="M296.3,541.48c.52-.7.17-.63,1-.41.22.81.3.47-.35.9Z"/><path class="cls-1" d="M292.93,500.36l1-.27-.1,1C293.15,501,293,501.18,292.93,500.36Z"/><path class="cls-1" d="M425.53,143.07c.64.57.5.12.42,1C424.93,144.16,424.74,143.8,425.53,143.07Z"/><path class="cls-1" d="M30.05,304.47c.42.57.62.61-.18,1.11C29.22,304.83,29.27,304.83,30.05,304.47Z"/><path class="cls-1" d="M525.2,241.59c.8.46.76.58,0,1C524.61,242.17,524.52,242.05,525.2,241.59Z"/><path class="cls-1" d="M309.12,304.07c.91,0,.87-.13.8.83C308.64,304.8,309.19,305.28,309.12,304.07Z"/><path class="cls-1" d="M546.23,532.48c.78,1,.38.61,0,1.18C545.53,533,545.43,533.06,546.23,532.48Z"/><path class="cls-1" d="M156.48,556.51c.4-.73.31-.6,1.08-.26C157.14,557,157.36,557.24,156.48,556.51Z"/><path class="cls-1" d="M186.27,18.71c.39-.95.57-.94,1.07,0C186.68,19,187.2,19.16,186.27,18.71Z"/><path class="cls-1" d="M485.4,256.9c.35.71.32.43,0,1.11C484.53,257.5,484.47,257.31,485.4,256.9Z"/><path class="cls-1" d="M39.46,155c.42-.77.32-.71,1-.22C40.07,155.66,40.15,155.55,39.46,155Z"/><path class="cls-1" d="M257.37,299.5c1.08,0,1.09-.13.53.86C257.32,300.06,257.4,300.84,257.37,299.5Z"/><path class="cls-1" d="M485.81,345.75c.67-.37.38-.4,1.13,0C486.57,346.32,486.32,346.64,485.81,345.75Z"/><path class="cls-1" d="M15.47,572.59c-.45.77,0,.49-.88.44C14.64,572,14.69,572,15.47,572.59Z"/><path class="cls-1" d="M407.32,333.63c.33-.81,0-.5.84-.53C408.13,334,408.18,334.22,407.32,333.63Z"/><path class="cls-1" d="M186.93,536c.35-.78.2-.76.89-.26C187.54,536.49,187.63,536.55,186.93,536Z"/><path class="cls-1" d="M545.94,473.76c.95.32.29-.16.67.66C545.8,474.75,545.5,474.68,545.94,473.76Z"/><path class="cls-1" d="M455.48,493.46c.71.19.95.21.43.89C455.23,494.06,455.32,494.4,455.48,493.46Z"/><path class="cls-1" d="M335.44,240.52c1,.16.9-.4.68.71C335.37,241.17,335.54,241.59,335.44,240.52Z"/><path class="cls-1" d="M154.11,397.58c.18-.63,0-.51.73-.5.07.78.2.39-.38.85Z"/><path class="cls-1" d="M400.78,263.5c.33.6.33.58-.16,1C400.32,264.1,399.86,264,400.78,263.5Z"/><path class="cls-1" d="M274.43,478.82c.48-.24.18-.46.88,0C274.76,480.09,274.48,478.86,274.43,478.82Z"/><path class="cls-1" d="M342.39,454.07c.71-.38.21-.32.92,0C342.6,455.28,342.87,454.57,342.39,454.07Z"/><path class="cls-1" d="M214.5,370.06c-.12-.84-.16-.56.64-.57C214.9,370.8,214.94,370.15,214.5,370.06Z"/><path class="cls-1" d="M338.94,375.77c.33.48.41.16,0,.84,0,0-.37.14-.35-.46C338.63,375.71,338.63,376,338.94,375.77Z"/><path class="cls-1" d="M23.11,497.39c.66-.54-.11-.7.94,0C23.22,497.88,23.89,497.91,23.11,497.39Z"/><path class="cls-1" d="M149.48,393.77c.39.56.45.1,0,.62C149.12,393.88,149,394.2,149.48,393.77Z"/><path class="cls-1" d="M766.6,99.35c-2.94,1.65-.52,7.08,2.61,5.38S769.44,97.75,766.6,99.35Z"/><path class="cls-1" d="M801.7,124.45c3.26-2.24-.32-5.15-1.67-4.73C798.07,120.33,797.53,124.46,801.7,124.45Z"/><path class="cls-1" d="M788.63,552.25c1.71,1.48,2,.3,3.55-.51s2.83-1,2-2.78C793.62,548.81,788.31,548.75,788.63,552.25Z"/><path class="cls-1" d="M825.16,195.74c-.91,0-2.5-.11-2.39,2.32a1.75,1.75,0,0,0,1.9,1.84C827.29,199.94,827.13,197.25,825.16,195.74Z"/><path class="cls-1" d="M553.6,340a11.9,11.9,0,0,1,2.19-1.49c1.1-.51,2-.45,1.7-1.84-1.18-.91-3,.18-4.34.7C551.55,338,551.17,340.05,553.6,340Z"/><path class="cls-1" d="M608.32,117.42c0,2.61,1.78,2.81,3.46,1.25v-1.5c-1-.84-1.49-.69-2.79-.54Z"/><path class="cls-1" d="M819.26,169.63c2.08,2.22,3.67.23,3.22-1S819.36,166.37,819.26,169.63Z"/><path class="cls-1" d="M633.38,263.47l1.29,1c1.67-.68,2-1.79,1.24-3.25C633.9,260.28,633.12,261.5,633.38,263.47Z"/><path class="cls-1" d="M781.9,491.11l0-1.6a5.26,5.26,0,0,0-3.84-.69c-.44,1.45,0,1.21,1.13,1.91A2.5,2.5,0,0,0,781.9,491.11Z"/><path class="cls-1" d="M655.15,140.53c1.27,1,1.92.74,3.1-.1l0-1.49C656.6,137.82,654.57,138.11,655.15,140.53Z"/><path class="cls-1" d="M626.34,214.09l1.45.07a3.73,3.73,0,0,0,.24-3.68C626.15,210.33,625.26,212.69,626.34,214.09Z"/><path class="cls-1" d="M772.79,293l-1.55-.13c-.94,1-1.43,2.55.41,3C773,296.16,774.19,294.47,772.79,293Z"/><path class="cls-1" d="M636.67,464.75c-4.26-2.5-3.56,4.56.1,1.66Z"/><path class="cls-1" d="M730.21,514.91c-2.31-.71-3.79,1.18-2.23,2.26C729.13,518,731.71,517,730.21,514.91Z"/><path class="cls-1" d="M621.5,336.92c-.66,2.91,2,3.52,2.83.89-.68-1.18-.25-.85-1.49-1.51Z"/><path class="cls-1" d="M600.87,232a4.76,4.76,0,0,0-.07-2.69C597.25,229.21,598.58,233.72,600.87,232Z"/><path class="cls-1" d="M697,331.29c-.18,2,.93,2.92,2.56,1.36l0-1c-.79-.87-.6-.95-1.78-1.05Z"/><path class="cls-1" d="M700.23,233.39a15.43,15.43,0,0,0,.66,2.4c1,.37,1,.5,1.9-.32a2.79,2.79,0,0,0-1.76-2.69Z"/><path class="cls-1" d="M669.32,51.9l.77.61a3.62,3.62,0,0,0,2.44-1.14l-.34-1.14A2.15,2.15,0,0,0,669.32,51.9Z"/><path class="cls-1" d="M808.34,20.94h-2c-.53.8-.44.42-.38,1.46,1.09.53,2.39.74,3-.47A1.88,1.88,0,0,0,808.34,20.94Z"/><path class="cls-1" d="M685.57,442.31c1.77.42,2.25-1.74.7-2.66C685.05,439.92,684.58,441.13,685.57,442.31Z"/><path class="cls-1" d="M631.93,144.05c.13-1,0-2.42-.79-3C629.62,141.23,629.75,144.87,631.93,144.05Z"/><path class="cls-1" d="M753.56,134.12c1.12.51,1.37.53,2.31-.38V132.6l-.93-.5C753.75,132.4,753.38,132.76,753.56,134.12Z"/><path class="cls-1" d="M609.48,295.32c1.19,1,3.62.43,2.75-1.75-1,.14-.57.3-1.52.65S609.69,294.25,609.48,295.32Z"/><path class="cls-1" d="M761.28,330.36l-.12,1.43C764,334.23,764,328.13,761.28,330.36Z"/><path class="cls-1" d="M573.44,38.81c.63-1.41-1.27-2.87-2.05-2.06S572.2,39.26,573.44,38.81Z"/><path class="cls-1" d="M723.46,176.06l.75,1c1.07,0,.83.09,1.6-.53C725.85,174.75,723.84,173.86,723.46,176.06Z"/><path class="cls-1" d="M658.74,568.37c.21.67.26.8.91,1.07s.7.22,1.51.12l.42-.78A1.62,1.62,0,0,0,658.74,568.37Z"/><path class="cls-1" d="M769.06,208.45l.34.62,1.35.3c.61-.48.69-.5.93-1.16l-.4-.93A1.83,1.83,0,0,0,769.06,208.45Z"/><path class="cls-1" d="M736,450.75c1.66.71,2.36-.22,1.58-1.81C736,448.56,735.14,449.28,736,450.75Z"/><path class="cls-1" d="M673.74,382.31c.35-1.57-1.07-2.07-2.3-1.8A1.58,1.58,0,0,0,673.74,382.31Z"/><path class="cls-1" d="M726,217.1v1.57c2.54.85,2.74-1.2,1-2.12Z"/><path class="cls-1" d="M642.41,324.7c.74.66.8.8,1.76.38.51-.82.41-.82.19-1.82C642.91,323,642.16,323.08,642.41,324.7Z"/><path class="cls-1" d="M679.94,212.87l.41.92c2.72.72,3.06-1.95.42-1.81Z"/><path class="cls-1" d="M630.61,179.44l1.51.29c.71-.84.8-1.11.22-2C630.88,177.17,630.25,178,630.61,179.44Z"/><path class="cls-1" d="M721.17,550.71c-2.63-.81-2.62,2.71,0,1.76C721.53,551.56,721.7,551.59,721.17,550.71Z"/><path class="cls-1" d="M770.43,255.66c-.36,1-.35.52-.08,1.45,1.51,1.16,2.51,0,1.6-1.6C771.14,255.35,771.28,255.25,770.43,255.66Z"/><path class="cls-1" d="M659.91,25.4c-.08,1.3.59,2.33,2,2C662.11,26.14,661.12,24.25,659.91,25.4Z"/><path class="cls-1" d="M582.6,175.81c.1,2.22,2.18,1.86,2.2-.05l-1.16-.84A11.18,11.18,0,0,0,582.6,175.81Z"/><path class="cls-1" d="M559.61,449.14l.62,1a1.86,1.86,0,0,0,1.43-2.37C560.46,447.61,560.06,448,559.61,449.14Z"/><path class="cls-1" d="M550.64,523.11v1.14c1.11.59,2.34.47,1.94-1.08C552.25,521.94,551.27,522.71,550.64,523.11Z"/><path class="cls-1" d="M787.45,437.63c.73.19.94-.09,1.74-.46l.23-.9-.85-.66C787.81,436.06,786.38,436.37,787.45,437.63Z"/><path class="cls-1" d="M755.78,555.87c.23-.77.49-.21.27-1.73-.8-.66-.77-.62-1.6-.09C754.29,555.23,754.28,556.29,755.78,555.87Z"/><path class="cls-1" d="M561,143.89c.94.57,1.9.78,2.57-.24A1.3,1.3,0,0,0,561,143.89Z"/><path class="cls-1" d="M681.4,298.85c1.4,1.36,2.44.09,1.46-1.46C681.68,297.15,681.26,297.63,681.4,298.85Z"/><path class="cls-1" d="M572.26,482.14c.11-.48.39,0,.28-1.24l-.88-.54c-1.08.38-1.1.16-1.27,1.22A1.37,1.37,0,0,0,572.26,482.14Z"/><path class="cls-1" d="M634.25,384.09c1.12.77,2.39.55,2.2-1C635.2,382.52,634.19,382.56,634.25,384.09Z"/><path class="cls-1" d="M583.4,554.16c-1.23-.79-2.21.08-1.62,1.38.73.42.79.42,1.54,0C583.67,554.81,583.61,555,583.4,554.16Z"/><path class="cls-1" d="M795.71,517.81c.95.79,2.45.91,2.18-.83-.86-.54-.68-.46-1.65-.31C795.51,517.61,795.9,516.7,795.71,517.81Z"/><path class="cls-1" d="M561.56,75.09c1.07-.37,1.5-.75.82-1.79-.65-.2-1.36-.33-1.68.5S561,74.83,561.56,75.09Z"/><path class="cls-1" d="M750.46,408.52l.51.53a1.65,1.65,0,0,0,1.43-2.15C751.47,406.4,750.7,407.66,750.46,408.52Z"/><path class="cls-1" d="M555.75,244c.86-1.14.21-2.18-1.19-2.19C554.12,242.94,554.54,244.08,555.75,244Z"/><path class="cls-1" d="M663.74,109.24c.65.6.48.52,1.34.43l.62-.86-.74-1.07C663.76,108,663.57,108,663.74,109.24Z"/><path class="cls-1" d="M560.28,360.86c.74,1,.78,1,1.9.63.15-1.08.24-.9-.41-1.67C560.86,359.82,560.61,360,560.28,360.86Z"/><path class="cls-1" d="M824.07,225l-.38-1.12C820.7,223.55,822.78,227.36,824.07,225Z"/><path class="cls-1" d="M569.36,409.42c.73.68.5.67,1.48.37a1.5,1.5,0,0,0-.92-2C569.14,408.21,569.2,408.5,569.36,409.42Z"/><path class="cls-1" d="M695.33,96.08c.43,1,1,1.18,2.1,1.17l.12-1.29-1-.49Z"/><path class="cls-1" d="M668.69,192.93l0,1.21c.87.44.58.36,1.51.1l.15-1.35C669.6,192.4,669.36,192.33,668.69,192.93Z"/><path class="cls-1" d="M807.49,403.25l.57.84,1.35,0c.28-.75.34-1.46-.63-1.55C808.16,402.46,808,403,807.49,403.25Z"/><path class="cls-1" d="M730.8,28.5l1.3.09.08-1.64C730.61,26.72,730.16,27.07,730.8,28.5Z"/><path class="cls-1" d="M612.91,399.67c.13,1.13.85,1.63,1.8,1A1,1,0,0,0,612.91,399.67Z"/><path class="cls-1" d="M702.59,395.73a1.63,1.63,0,0,0,2,.24c-.08-.76-.09-1.09-1-1.22S702.75,395,702.59,395.73Z"/><path class="cls-1" d="M673.23,264c.56-1.08-.17-1.9-1.28-1.75C671.87,263.43,671.9,264.22,673.23,264Z"/><path class="cls-1" d="M578.71,72.75c-.31.8-.34.36,0,1.24.86.34,1.16.31,1.51-.6C580,72.53,579.53,72.32,578.71,72.75Z"/><path class="cls-1" d="M717.05,85.78l1.2,0c.24-.94.26-.54-.07-1.35C717.16,83.77,716.49,84.66,717.05,85.78Z"/><path class="cls-1" d="M763.14,373.18c.7,1.25,1.45,1,1.78-.27C764.2,372,763.62,372.12,763.14,373.18Z"/><path class="cls-1" d="M792.07,345.25c.73.88,1.3.94,2,0C793.62,344.32,792.39,344.16,792.07,345.25Z"/><path class="cls-1" d="M709.73,126.78a1.36,1.36,0,0,0,2.07-.31C711.11,125.51,709.71,125.53,709.73,126.78Z"/><polygon class="cls-1" points="690.43 474.68 691.84 474.56 691.76 473.2 690.5 473.13 690.43 474.68"/><path class="cls-1" d="M702.81,511.48c-1-.38-1.53,0-1.46,1.16.91.28.71.27,1.66-.23Z"/><path class="cls-1" d="M751.5,52.45l1.41.3c.19-1.07.26-.72-.08-1.54l-1,0Z"/><path class="cls-1" d="M567.31,579.27h1.34l.12-1c-.77-.58-.53-.61-1.4-.22Z"/><path class="cls-1" d="M707.31,571c-.79-.73-.7-.59-1.56-.08C706.14,572.62,707.49,572.26,707.31,571Z"/><path class="cls-1" d="M669.33,548.84c.68.28.51.31,1.15-.07.14-.9.22-.78-.62-1.31C669.18,547.79,668.87,547.86,669.33,548.84Z"/><path class="cls-1" d="M595.71,362.75l1.31,0-.06-1.39C595.83,361.3,595.53,361.72,595.71,362.75Z"/><path class="cls-1" d="M810.73,310.89c.49.63.51.79,1.29.45l.25-1.09C811.24,309.92,811.13,310,810.73,310.89Z"/><path class="cls-1" d="M800.93,82.79c.57.53.46.54,1.26.29l.17-1.14C801.31,81.68,801.08,81.86,800.93,82.79Z"/><path class="cls-1" d="M648.35,514.44c1,.18,1.31-.23,1.64-1C649.14,512.6,648.3,513.48,648.35,514.44Z"/><path class="cls-1" d="M701.3,169.4c.72,1.34,1.72,1,1.38-.48C701.82,168.59,701.87,168.78,701.3,169.4Z"/><path class="cls-1" d="M631.36,92.3c.93.19.36.31,1.08-.2.13-.83.39-.33-.3-1C631.26,90.92,630.84,91.43,631.36,92.3Z"/><path class="cls-1" d="M650,227.16c.35-.73.35-.78-.18-1.38-.31.08-.84.06-.88.78C648.88,227.43,649.62,227.22,650,227.16Z"/><path class="cls-1" d="M741.37,257.88c1.13.14,1.55-.36.86-1.35C741.39,256.59,741.17,257,741.37,257.88Z"/><path class="cls-1" d="M594.14,503.43c-.79.11-.74.25-1.09.76C593.84,505.49,595,504.63,594.14,503.43Z"/><path class="cls-1" d="M788.32,148.77c1-.18,1.07-.56,1-1.45C788.41,147.33,787.81,147.74,788.32,148.77Z"/><path class="cls-1" d="M557,185.09l0,1,1,.13c.38-.76.34-.39.11-1.18Z"/><path class="cls-1" d="M729.63,309.64c.81.54.8.49,1.58,0-.17-.39-.09-.67-.82-.69C729.9,308.94,729.79,309.2,729.63,309.64Z"/><path class="cls-1" d="M807,484c0-.79,0-.63-.6-1.16-.57.35-.77.1-.54,1C806.44,484.2,806,484.21,807,484Z"/><path class="cls-1" d="M575.52,109.35c.8.28.41.32,1.11-.1.16-.68,0-.62-.57-1C575.5,108.66,575.39,108.49,575.52,109.35Z"/><path class="cls-1" d="M793.23,45.9H794c.15-.93.25-.49-.2-1.21C793.75,44.68,792.38,44.45,793.23,45.9Z"/><path class="cls-1" d="M700.84,355.87,702,356l-.25-1.24C700.9,354.81,700.74,355.06,700.84,355.87Z"/><path class="cls-1" d="M625.28,559.57c-1.25.15-.88,1.1-.07,1.25C625.86,560.25,625.84,560.18,625.28,559.57Z"/><path class="cls-1" d="M755.67,475.13c.79-.68.77-1.29-.26-1.53C755.1,474.38,755.08,474.52,755.67,475.13Z"/><path class="cls-1" d="M826.18,374.87l.72.11,0,0v-1l-.28-.18C825.9,374.23,826,373.89,826.18,374.87Z"/><path class="cls-1" d="M662.55,418.1c1,.32.92.28,1.17-.62C662.91,417.06,662.42,417,662.55,418.1Z"/><path class="cls-1" d="M620.84,454.65c-.81-.47-.56.09-.58.09-.28,1.1.13,1,1,.67C621.05,454.62,621.52,455.06,620.84,454.65Z"/><path class="cls-1" d="M797,382.77c.92-.12,1.32-.5.68-1.32C797,381.82,797,382,797,382.77Z"/><path class="cls-1" d="M726.06,277.62c1,.17.61.33,1.11-.36-.49-.83-.06-.44-1-.56Z"/><path class="cls-1" d="M615.1,45.69c1.1-.15.46.15.87-.5-.4-.71,0-.51-1-.51Z"/><path class="cls-1" d="M736.93,25.12l.87.24c.15-1,.34-.49-.26-1.09C736.65,24.61,737,24.49,736.93,25.12Z"/><path class="cls-1" d="M573.37,295.75c.42-.58.62-.61-.19-1.11C572.53,295.39,572.58,295.39,573.37,295.75Z"/><path class="cls-1" d="M699.8,43.7c.4.74.3.6,1.08.27C700.45,43.17,700.68,43,699.8,43.7Z"/><path class="cls-1" d="M696.29,444.41c.4.95.58.94,1.08,0C696.7,444.09,697.22,444,696.29,444.41Z"/><path class="cls-1" d="M582.78,445.19c.42.77.32.72,1,.23C583.39,444.56,583.47,444.67,582.78,445.19Z"/><path class="cls-1" d="M800.69,300.71c1.08,0,1.09.14.53-.85C800.64,300.15,800.71,299.37,800.69,300.71Z"/><path class="cls-1" d="M558.79,27.62c-.46-.76,0-.49-.89-.43C558,28.2,558,28.25,558.79,27.62Z"/><path class="cls-1" d="M730.25,64.23c.35.79.2.76.89.27C730.85,63.73,731,63.67,730.25,64.23Z"/><path class="cls-1" d="M697.42,202.63c.18.64,0,.52.74.5.06-.78.19-.38-.38-.85Z"/><path class="cls-1" d="M817.74,121.39c.48.24.19.46.88,0C818.08,120.13,817.79,121.35,817.74,121.39Z"/><path class="cls-1" d="M757.81,230.16c-.11.83-.15.56.65.56C758.22,229.41,758.25,230.07,757.81,230.16Z"/><path class="cls-1" d="M566.43,102.82c.65.54-.12.7.94,0C566.54,102.33,567.2,102.31,566.43,102.82Z"/><path class="cls-1" d="M636.39,29.75c.39-.56.45-.1,0-.62C636,29.64,635.86,29.32,636.39,29.75Z"/></g></g></svg>